<?xml version="1.0" encoding="iso-8859-1"?>
<!-- Generator: Adobe Illustrator 18.1.1, SVG Export Plug-In . SVG Version: 6.00 Build 0)  -->
<svg version="1.1" id="Capa_1" xmlns="http://www.w3.org/2000/svg" xmlns:xlink="http://www.w3.org/1999/xlink" x="0px" y="0px"
	 viewBox="0 0 18.736 18.736" style="enable-background:new 0 0 18.736 18.736;" xml:space="preserve">
<g>
	<path style="fill:#030104;" d="M0,0.458c1.676,0,3.35,0,5.026,0c0.149,3.174,0.632,5.418,0.896,8.363
		c0.351-2.199,0.609-5.638,0.932-8.363c1.676,0,3.35,0,5.026,0c0.068,3.262,0.334,5.02,0.465,8.317
		c0.527-2.462,0.965-5.497,1.361-8.317c1.677,0,3.354,0,5.03,0c-0.839,5.865-1.378,12.026-2.285,17.82c-1.981,0-3.961,0-5.939,0
		c-0.278-2.07-0.632-4.268-0.938-6.819c-0.442,2.243-0.88,4.665-1.348,6.819c-1.981,0-3.962,0-5.94,0
		C1.369,12.492,0.533,6.624,0,0.458z"/>
</g>
<g>
</g>
<g>
</g>
<g>
</g>
<g>
</g>
<g>
</g>
<g>
</g>
<g>
</g>
<g>
</g>
<g>
</g>
<g>
</g>
<g>
</g>
<g>
</g>
<g>
</g>
<g>
</g>
<g>
</g>
</svg>
